<svg width="27" height="27" viewBox="0 0 27 27" fill="none" xmlns="http://www.w3.org/2000/svg">
<path d="M13.5001 0C20.9386 0 27.0001 6.06152 27.0001 13.5C27.0001 20.9386 20.9386 27.0001 13.5001 27.0001C6.06155 27.0001 3.43323e-05 20.9386 3.43323e-05 13.5C3.43323e-05 6.06152 6.06155 0 13.5001 0ZM9.73357 14.2155L14.4991 18.9811C14.7016 19.1836 14.9581 19.2781 15.2146 19.2781C15.4711 19.2781 15.7276 19.1836 15.9301 18.9811C16.3216 18.5896 16.3216 17.9416 15.9301 17.5501L11.8801 13.5L15.9301 9.45003C16.3216 9.05853 16.3216 8.41053 15.9301 8.01903C15.5386 7.62753 14.8906 7.62753 14.4991 8.01903L9.73357 12.7845C9.32856 13.176 9.32856 13.824 9.73357 14.2155Z" fill="#FFB240"/>
</svg>
