<svg width="59" height="59" viewBox="0 0 59 59" fill="none" xmlns="http://www.w3.org/2000/svg">
<path d="M29.7665 18.4948C27.0781 18.4948 24.7941 19.5124 23.3022 21.1074V24.074H36.2318V21.1074C34.74 19.5124 32.4554 18.4948 29.7665 18.4948ZM41.6374 16.9724L29.7352 9.83325L17.8379 16.9724L19.8211 18.1537V19.9707C19.3238 20.1047 19.3223 20.4439 19.3223 20.8472C19.3223 21.0854 19.383 21.3644 19.4984 21.5314L18.8181 23.4267H21.2449L20.5705 21.5301C20.6839 21.3631 20.7769 21.1171 20.7769 20.8789C20.7769 20.4762 20.3184 20.104 20.3184 19.9701V18.4573L22.8049 19.9111V19.7823C24.2968 18.0935 26.918 17.0216 29.766 17.0216C32.615 17.0216 35.2373 18.0935 36.7291 19.7823V19.9111L41.6374 16.9724Z" fill="#716E66"/>
<circle cx="29.5" cy="29.5" r="28.3937" stroke="#716E66" stroke-width="2.2125"/>
<path d="M29.7646 30.7824C31.1091 30.7824 32.4235 30.4443 33.5415 29.811C34.6595 29.1777 35.5308 28.2775 36.0454 27.2243C36.5599 26.1711 36.6945 25.0122 36.4322 23.8942C36.1699 22.7761 35.5224 21.7491 34.5717 20.943C33.6209 20.137 32.4096 19.588 31.0908 19.3656C29.7721 19.1432 28.4052 19.2574 27.163 19.6936C25.9208 20.1299 24.859 20.8686 24.112 21.8165C23.365 22.7643 22.9663 23.8787 22.9663 25.0186C22.9663 26.5473 23.6826 28.0133 24.9575 29.0942C26.2324 30.1751 27.9616 30.7824 29.7646 30.7824Z" fill="#716E66"/>
<path d="M39.9616 45.192C40.4123 45.192 40.8446 45.0402 41.1633 44.77C41.4821 44.4998 41.6611 44.1333 41.6611 43.7511C41.6611 41.076 40.4077 38.5104 38.1766 36.6188C35.9455 34.7272 32.9194 33.6646 29.7642 33.6646C26.6089 33.6646 23.5828 34.7272 21.3517 36.6188C19.1206 38.5104 17.8672 41.076 17.8672 43.7511C17.8672 44.1333 18.0462 44.4998 18.365 44.77C18.6837 45.0402 19.116 45.192 19.5668 45.192H39.9616Z" fill="#716E66"/>
</svg>
