<svg width="65" height="65" viewBox="0 0 65 65" fill="none" xmlns="http://www.w3.org/2000/svg">
<path d="M32.794 20.3757C29.8323 20.3757 27.3159 21.4967 25.6723 23.2539V26.5222H39.9169V23.2539C38.2733 21.4967 35.7564 20.3757 32.794 20.3757ZM45.8722 18.6984L32.7595 10.8333L19.6523 18.6984L21.8372 19.9999V22.0016C21.2894 22.1492 21.2877 22.5229 21.2877 22.9672C21.2877 23.2296 21.3546 23.537 21.4817 23.721L20.7322 25.809H23.4058L22.6629 23.7196C22.7878 23.5356 22.8902 23.2646 22.8902 23.0022C22.8902 22.5586 22.3851 22.1485 22.3851 22.0009V20.3343L25.1244 21.936V21.7941C26.768 19.9335 29.6559 18.7526 32.7935 18.7526C35.9322 18.7526 38.8211 19.9335 40.4647 21.7941V21.936L45.8722 18.6984Z" fill="black"/>
<circle cx="32.5" cy="32.5" r="31.2812" stroke="black" stroke-width="2.4375"/>
<path d="M32.7923 33.9127C34.2737 33.9127 35.7217 33.5403 36.9534 32.8425C38.185 32.1448 39.145 31.1531 39.7119 29.9928C40.2787 28.8325 40.427 27.5557 40.1381 26.324C39.8491 25.0922 39.1357 23.9608 38.0883 23.0727C37.0409 22.1847 35.7063 21.5799 34.2535 21.3349C32.8007 21.0899 31.2947 21.2156 29.9262 21.6963C28.5576 22.1769 27.3879 22.9907 26.565 24.035C25.742 25.0792 25.3027 26.3069 25.3027 27.5628C25.3027 29.2469 26.0918 30.862 27.4964 32.0528C28.901 33.2437 30.806 33.9127 32.7923 33.9127Z" fill="black"/>
<path d="M44.0258 49.7877C44.5224 49.7877 44.9987 49.6204 45.3498 49.3227C45.701 49.025 45.8982 48.6212 45.8982 48.2002C45.8982 45.253 44.5173 42.4266 42.0593 40.3426C39.6013 38.2586 36.2675 37.0879 32.7914 37.0879C29.3152 37.0879 25.9815 38.2586 23.5235 40.3426C21.0655 42.4266 19.6846 45.253 19.6846 48.2002C19.6846 48.6212 19.8818 49.025 20.233 49.3227C20.5841 49.6204 21.0604 49.7877 21.557 49.7877H44.0258Z" fill="black"/>
</svg>
