<svg width="20" height="18" viewBox="0 0 20 18" fill="none" xmlns="http://www.w3.org/2000/svg">
<path fill-rule="evenodd" clip-rule="evenodd" d="M7.25 0C3.24595 0 0 3.24595 0 7.25C0 16.25 12 18 12 18V14.5H12.75C16.754 14.5 20 11.254 20 7.25C20 3.24595 16.754 0 12.75 0H7.25ZM10 8.75C10.6903 8.75 11.25 8.19035 11.25 7.5C11.25 6.80965 10.6903 6.25 10 6.25C9.30965 6.25 8.75 6.80965 8.75 7.5C8.75 8.19035 9.30965 8.75 10 8.75ZM15.25 7.5C15.25 8.19035 14.6903 8.75 14 8.75C13.3097 8.75 12.75 8.19035 12.75 7.5C12.75 6.80965 13.3097 6.25 14 6.25C14.6903 6.25 15.25 6.80965 15.25 7.5ZM6 8.75C6.69035 8.75 7.25 8.19035 7.25 7.5C7.25 6.80965 6.69035 6.25 6 6.25C5.30965 6.25 4.75 6.80965 4.75 7.5C4.75 8.19035 5.30965 8.75 6 8.75Z" fill="#FFB240"/>
</svg>
