<svg width="19" height="19" viewBox="0 0 19 19" fill="none" xmlns="http://www.w3.org/2000/svg">
<path d="M1.35714 17.2188C1.35714 17.6912 1.57162 18.1442 1.95339 18.4783C2.33516 18.8123 2.85295 19 3.39286 19H15.6071C16.147 19 16.6648 18.8123 17.0466 18.4783C17.4284 18.1442 17.6429 17.6912 17.6429 17.2188V4.75H1.35714V17.2188ZM12.8929 7.71875C12.8929 7.56128 12.9643 7.41026 13.0916 7.29891C13.2189 7.18756 13.3915 7.125 13.5714 7.125C13.7514 7.125 13.924 7.18756 14.0513 7.29891C14.1785 7.41026 14.25 7.56128 14.25 7.71875V16.0312C14.25 16.1887 14.1785 16.3397 14.0513 16.4511C13.924 16.5624 13.7514 16.625 13.5714 16.625C13.3915 16.625 13.2189 16.5624 13.0916 16.4511C12.9643 16.3397 12.8929 16.1887 12.8929 16.0312V7.71875ZM8.82143 7.71875C8.82143 7.56128 8.89292 7.41026 9.02018 7.29891C9.14743 7.18756 9.32003 7.125 9.5 7.125C9.67997 7.125 9.85256 7.18756 9.97982 7.29891C10.1071 7.41026 10.1786 7.56128 10.1786 7.71875V16.0312C10.1786 16.1887 10.1071 16.3397 9.97982 16.4511C9.85256 16.5624 9.67997 16.625 9.5 16.625C9.32003 16.625 9.14743 16.5624 9.02018 16.4511C8.89292 16.3397 8.82143 16.1887 8.82143 16.0312V7.71875ZM4.75 7.71875C4.75 7.56128 4.82149 7.41026 4.94875 7.29891C5.07601 7.18756 5.2486 7.125 5.42857 7.125C5.60854 7.125 5.78114 7.18756 5.90839 7.29891C6.03565 7.41026 6.10714 7.56128 6.10714 7.71875V16.0312C6.10714 16.1887 6.03565 16.3397 5.90839 16.4511C5.78114 16.5624 5.60854 16.625 5.42857 16.625C5.2486 16.625 5.07601 16.5624 4.94875 16.4511C4.82149 16.3397 4.75 16.1887 4.75 16.0312V7.71875ZM18.3214 1.18751H13.2321L12.8335 0.493561C12.749 0.345203 12.6189 0.220407 12.4579 0.133214C12.2968 0.04602 12.1111 -0.000112366 11.9217 6.50628e-06H7.07411C6.88512 -0.000629197 6.69974 0.0453311 6.53923 0.132622C6.37871 0.219913 6.24954 0.345003 6.16652 0.493561L5.76786 1.18751H0.678571C0.498603 1.18751 0.326006 1.25006 0.198749 1.36141C0.0714922 1.47276 0 1.62378 0 1.78126L0 2.96876C0 3.12623 0.0714922 3.27725 0.198749 3.3886C0.326006 3.49995 0.498603 3.56251 0.678571 3.56251H18.3214C18.5014 3.56251 18.674 3.49995 18.8013 3.3886C18.9285 3.27725 19 3.12623 19 2.96876V1.78126C19 1.62378 18.9285 1.47276 18.8013 1.36141C18.674 1.25006 18.5014 1.18751 18.3214 1.18751Z" fill="black"/>
</svg>
