<svg width="44" height="58" viewBox="0 0 44 58" fill="none" xmlns="http://www.w3.org/2000/svg">
<path d="M21.4739 40.6603L38.4719 40.661C41.1648 40.661 43.3478 42.844 43.3478 45.5369V47.4983C43.3478 49.8683 42.3131 52.1203 40.5149 53.6641C37.1224 56.5766 32.2675 58 26.0047 58L25.6167 57.9975C26.2716 56.6788 26.1113 55.0586 25.1367 53.8878L24.8974 53.626L20.065 48.8066C21.106 47.0142 21.6706 44.963 21.6706 42.8282C21.6706 42.0879 21.6031 41.3633 21.4739 40.6603ZM9.75177 33.0765C15.1375 33.0765 19.5035 37.4425 19.5035 42.8282C19.5035 45.1986 18.6578 47.3714 17.2517 49.0614L23.3669 55.1601C24.0023 55.7941 24.0036 56.8232 23.3696 57.4587C22.7933 58.0364 21.8904 58.0899 21.2536 57.6185L21.0711 57.4614L14.7799 51.1855C13.3117 52.0707 11.5912 52.58 9.75177 52.58C4.36601 52.58 0 48.214 0 42.8282C0 37.4425 4.36601 33.0765 9.75177 33.0765ZM9.75177 36.3271C6.16126 36.3271 3.25059 39.2377 3.25059 42.8282C3.25059 46.4187 6.16126 49.3294 9.75177 49.3294C13.3423 49.3294 16.2529 46.4187 16.2529 42.8282C16.2529 39.2377 13.3423 36.3271 9.75177 36.3271ZM26.0047 14.6665C31.9889 14.6665 36.84 19.5176 36.84 25.5018C36.84 31.486 31.9889 36.3371 26.0047 36.3371C20.0205 36.3371 15.1694 31.486 15.1694 25.5018C15.1694 19.5176 20.0205 14.6665 26.0047 14.6665Z" fill="#FFB240"/>
<path d="M26.0031 13.024C21.9607 13.024 18.5262 14.5541 16.283 16.9523V21.4131H35.7247V16.9523C33.4814 14.5541 30.0462 13.024 26.0031 13.024ZM43.8528 10.7348L25.956 0L8.06659 10.7348L11.0487 12.5111V15.2432C10.3009 15.4447 10.2986 15.9547 10.2986 16.5611C10.2986 16.9193 10.3899 17.3388 10.5634 17.5899L9.54042 20.4398H13.1895L12.1755 17.5879C12.346 17.3368 12.4858 16.9669 12.4858 16.6088C12.4858 16.0034 11.7964 15.4437 11.7964 15.2422V12.9676L15.5352 15.1536V14.96C17.7785 12.4206 21.7199 10.8087 26.0023 10.8087C30.2862 10.8087 34.2292 12.4206 36.4725 14.96V15.1536L43.8528 10.7348Z" fill="#FFB240"/>
</svg>
