<svg width="117" height="58" viewBox="0 0 117 58" fill="none" xmlns="http://www.w3.org/2000/svg">
<path d="M21.4739 40.6603L38.4719 40.661C41.1648 40.661 43.3478 42.844 43.3478 45.5369V47.4983C43.3478 49.8683 42.3131 52.1203 40.5149 53.6641C37.1224 56.5766 32.2675 58 26.0047 58L25.6167 57.9975C26.2716 56.6788 26.1113 55.0586 25.1367 53.8878L24.8974 53.626L20.065 48.8066C21.106 47.0142 21.6706 44.963 21.6706 42.8282C21.6706 42.0879 21.6031 41.3633 21.4739 40.6603ZM9.75177 33.0765C15.1375 33.0765 19.5035 37.4425 19.5035 42.8282C19.5035 45.1986 18.6578 47.3714 17.2517 49.0614L23.3669 55.1601C24.0023 55.7941 24.0036 56.8232 23.3696 57.4587C22.7933 58.0364 21.8904 58.0899 21.2536 57.6185L21.0711 57.4614L14.7799 51.1855C13.3117 52.0707 11.5912 52.58 9.75177 52.58C4.36601 52.58 0 48.214 0 42.8282C0 37.4425 4.36601 33.0765 9.75177 33.0765ZM9.75177 36.3271C6.16126 36.3271 3.25059 39.2377 3.25059 42.8282C3.25059 46.4187 6.16126 49.3294 9.75177 49.3294C13.3423 49.3294 16.2529 46.4187 16.2529 42.8282C16.2529 39.2377 13.3423 36.3271 9.75177 36.3271ZM26.0047 14.6665C31.9889 14.6665 36.84 19.5176 36.84 25.5018C36.84 31.486 31.9889 36.3371 26.0047 36.3371C20.0205 36.3371 15.1694 31.486 15.1694 25.5018C15.1694 19.5176 20.0205 14.6665 26.0047 14.6665Z" fill="#FFB240"/>
<path d="M26.0029 13.024C21.9605 13.024 18.5261 14.5541 16.2828 16.9523V21.4131H35.7245V16.9523C33.4812 14.5541 30.046 13.024 26.0029 13.024ZM43.8526 10.7348L25.9558 0L8.06641 10.7348L11.0485 12.5111V15.2432C10.3007 15.4447 10.2985 15.9547 10.2985 16.5611C10.2985 16.9193 10.3897 17.3388 10.5632 17.5899L9.54024 20.4398H13.1893L12.1753 17.5879C12.3458 17.3368 12.4857 16.9669 12.4857 16.6088C12.4857 16.0034 11.7962 15.4437 11.7962 15.2422V12.9676L15.535 15.1536V14.96C17.7783 12.4206 21.7197 10.8087 26.0021 10.8087C30.2861 10.8087 34.229 12.4206 36.4723 14.96V15.1536L43.8526 10.7348Z" fill="#FFB240"/>
<path d="M81.9692 25.8772V32.73H78.1439V20.7141H81.7815V22.9201H81.9145C82.1805 22.1848 82.6342 21.6085 83.2757 21.1913C83.9171 20.7688 84.6812 20.5576 85.5678 20.5576C86.4126 20.5576 87.1454 20.748 87.766 21.1287C88.3918 21.5042 88.8768 22.0309 89.221 22.7089C89.5705 23.3817 89.7426 24.1692 89.7373 25.0714V32.73H85.912V25.8224C85.9172 25.1548 85.7477 24.6333 85.4035 24.2578C85.0645 23.8823 84.5925 23.6946 83.9875 23.6946C83.586 23.6946 83.2313 23.7832 82.9236 23.9606C82.6211 24.1327 82.3865 24.3804 82.2196 24.7037C82.0579 25.0271 81.9745 25.4182 81.9692 25.8772ZM92.1057 32.73V20.7141H95.9311V32.73H92.1057ZM94.0223 19.3138C93.4851 19.3138 93.0236 19.1365 92.6377 18.7818C92.2517 18.422 92.0588 17.9891 92.0588 17.4832C92.0588 16.9826 92.2517 16.5549 92.6377 16.2003C93.0236 15.8404 93.4851 15.6605 94.0223 15.6605C94.5647 15.6605 95.0263 15.8404 95.407 16.2003C95.7929 16.5549 95.9859 16.9826 95.9859 17.4832C95.9859 17.9891 95.7929 18.422 95.407 18.7818C95.0263 19.1365 94.5647 19.3138 94.0223 19.3138ZM110.022 20.7141L105.899 32.73H101.519L97.4037 20.7141H101.433L103.646 28.9907H103.772L105.993 20.7141H110.022ZM71.0861 22.5045H75.7235V34.9053C75.7235 36.3385 75.3824 37.587 74.7002 38.6509C74.0181 39.7086 73.0668 40.5284 71.8465 41.1104C70.6261 41.6862 69.2086 41.9741 67.594 41.9741C65.9605 41.9741 64.5337 41.6862 63.3133 41.1104C62.0929 40.5284 61.1448 39.7086 60.4689 38.6509C59.793 37.587 59.4551 36.3385 59.4551 34.9053V22.5045H64.1018V34.5017C64.1018 35.165 64.2458 35.7564 64.5337 36.2759C64.8278 36.7953 65.2377 37.2021 65.7634 37.4962C66.2891 37.7904 66.8993 37.9375 67.594 37.9375C68.2886 37.9375 68.8957 37.7904 69.4151 37.4962C69.9408 37.2021 70.3507 36.7953 70.6449 36.2759C70.939 35.7564 71.0861 35.165 71.0861 34.5017V22.5045ZM86.8038 39.512C86.7516 38.9383 86.5195 38.4924 86.1075 38.1743C85.7007 37.8509 85.1192 37.6893 84.363 37.6893C83.8624 37.6893 83.4452 37.7545 83.1114 37.8848C82.7776 38.0152 82.5273 38.1952 82.3604 38.4246C82.1935 38.6489 82.1074 38.907 82.1022 39.1991C82.0918 39.439 82.1387 39.6502 82.243 39.8327C82.3526 40.0153 82.509 40.1769 82.7124 40.3178C82.921 40.4533 83.1714 40.5733 83.4634 40.6776C83.7555 40.7819 84.084 40.8732 84.4491 40.9514L85.8259 41.2643C86.6186 41.4364 87.3175 41.6659 87.9224 41.9527C88.5326 42.2396 89.0437 42.5812 89.4557 42.9775C89.8729 43.3739 90.1885 43.8302 90.4023 44.3465C90.6161 44.8628 90.7256 45.4417 90.7308 46.0832C90.7256 47.095 90.4701 47.9633 89.9642 48.6882C89.4583 49.4131 88.7308 49.9686 87.7816 50.3545C86.8377 50.7404 85.6981 50.9334 84.363 50.9334C83.0227 50.9334 81.8545 50.7326 80.8584 50.331C79.8623 49.9294 79.0878 49.3193 78.535 48.5005C77.9822 47.6817 77.698 46.6464 77.6823 45.3948H81.3904C81.4216 45.9111 81.5598 46.3414 81.805 46.6856C82.0501 47.0298 82.3865 47.2905 82.8141 47.4678C83.247 47.6452 83.7476 47.7338 84.3161 47.7338C84.8376 47.7338 85.2809 47.6634 85.646 47.5226C86.0163 47.3818 86.3005 47.1862 86.4987 46.9359C86.6969 46.6856 86.7986 46.3987 86.8038 46.0754C86.7986 45.7729 86.7047 45.5147 86.5221 45.3009C86.3396 45.0819 86.058 44.8941 85.6773 44.7377C85.3018 44.576 84.822 44.4274 84.2379 44.2918L82.5638 43.9006C81.1765 43.5825 80.0839 43.0688 79.286 42.3595C78.4881 41.645 78.0917 40.6802 78.0969 39.4651C78.0917 38.4742 78.3577 37.6058 78.8949 36.86C79.432 36.1143 80.1752 35.5328 81.1244 35.1156C82.0735 34.6983 83.1557 34.4897 84.3709 34.4897C85.6121 34.4897 86.689 34.7009 87.6017 35.1234C88.5196 35.5406 89.2315 36.1273 89.7373 36.8835C90.2432 37.6397 90.5014 38.5159 90.5118 39.512H86.8038Z" fill="#FFB240"/>
</svg>
