<svg width="104" height="42" viewBox="0 0 104 42" fill="none" xmlns="http://www.w3.org/2000/svg">
<path d="M71.9675 14.7195V21H68.4616V9.98757H71.7954V12.0094H71.9173C72.1611 11.3354 72.5769 10.8073 73.1648 10.4249C73.7527 10.0378 74.453 9.84417 75.2655 9.84417C76.0398 9.84417 76.7114 10.0186 77.2802 10.3676C77.8537 10.7117 78.2982 11.1944 78.6137 11.8158C78.9339 12.4324 79.0917 13.1541 79.0869 13.981V21H75.581V14.6693C75.5857 14.0575 75.4304 13.5795 75.1149 13.2354C74.8043 12.8912 74.3717 12.7192 73.8173 12.7192C73.4492 12.7192 73.1242 12.8004 72.8422 12.9629C72.565 13.1207 72.3499 13.3477 72.1969 13.644C72.0488 13.9404 71.9723 14.2989 71.9675 14.7195ZM81.2575 21V9.98757H84.7634V21H81.2575ZM83.014 8.70422C82.5217 8.70422 82.0987 8.54171 81.745 8.21669C81.3913 7.88689 81.2144 7.49017 81.2144 7.02654C81.2144 6.56769 81.3913 6.17575 81.745 5.85073C82.0987 5.52093 82.5217 5.35603 83.014 5.35603C83.5111 5.35603 83.9341 5.52093 84.283 5.85073C84.6367 6.17575 84.8136 6.56769 84.8136 7.02654C84.8136 7.49017 84.6367 7.88689 84.283 8.21669C83.9341 8.54171 83.5111 8.70422 83.014 8.70422ZM97.6775 9.98757L93.8992 21H89.8842L86.113 9.98757H89.8054L91.8343 17.573H91.9491L93.9852 9.98757H97.6775ZM61.9932 11.3801H66.2433V22.7453C66.2433 24.0587 65.9308 25.203 65.3056 26.1781C64.6804 27.1474 63.8086 27.8988 62.6901 28.4322C61.5717 28.9599 60.2725 29.2237 58.7927 29.2237C57.2957 29.2237 55.988 28.9599 54.8696 28.4322C53.7511 27.8988 52.8822 27.1474 52.2627 26.1781C51.6433 25.203 51.3335 24.0587 51.3335 22.7453V11.3801H55.5923V22.3753C55.5923 22.9833 55.7242 23.5253 55.988 24.0014C56.2576 24.4774 56.6333 24.8503 57.1151 25.1198C57.5969 25.3894 58.1561 25.5242 58.7927 25.5242C59.4294 25.5242 59.9858 25.3894 60.4618 25.1198C60.9436 24.8503 61.3193 24.4774 61.5889 24.0014C61.8584 23.5253 61.9932 22.9833 61.9932 22.3753V11.3801ZM76.3983 26.7189C76.3505 26.1931 76.1378 25.7844 75.7602 25.4929C75.3874 25.1965 74.8545 25.0484 74.1614 25.0484C73.7025 25.0484 73.3202 25.1081 73.0143 25.2276C72.7084 25.3471 72.4789 25.512 72.326 25.7223C72.173 25.9278 72.0942 26.1644 72.0894 26.4321C72.0798 26.6519 72.1229 26.8455 72.2184 27.0128C72.3188 27.1801 72.4622 27.3283 72.6486 27.4573C72.8398 27.5816 73.0692 27.6915 73.3369 27.7871C73.6046 27.8827 73.9057 27.9664 74.2403 28.0381L75.5021 28.3248C76.2286 28.4826 76.8691 28.6929 77.4235 28.9558C77.9828 29.2186 78.4512 29.5317 78.8288 29.895C79.2112 30.2582 79.5003 30.6765 79.6963 31.1496C79.8923 31.6228 79.9926 32.1534 79.9974 32.7413C79.9926 33.6685 79.7584 34.4644 79.2948 35.1287C78.8312 35.7931 78.1644 36.3022 77.2945 36.6559C76.4294 37.0096 75.385 37.1864 74.1614 37.1864C72.933 37.1864 71.8624 37.0024 70.9494 36.6344C70.0365 36.2663 69.3267 35.7071 68.8201 34.9567C68.3134 34.2063 68.0529 33.2575 68.0386 32.1104H71.437C71.4656 32.5836 71.5923 32.9779 71.817 33.2933C72.0416 33.6088 72.3499 33.8478 72.7418 34.0103C73.1385 34.1728 73.5974 34.2541 74.1184 34.2541C74.5963 34.2541 75.0026 34.1895 75.3372 34.0605C75.6766 33.9314 75.9371 33.7522 76.1187 33.5228C76.3003 33.2933 76.3935 33.0305 76.3983 32.7341C76.3935 32.4569 76.3075 32.2203 76.1402 32.0243C75.9729 31.8236 75.7148 31.6515 75.3659 31.5081C75.0217 31.36 74.582 31.2237 74.0467 31.0995L72.5124 30.741C71.241 30.4494 70.2396 29.9786 69.5084 29.3286C68.7771 28.6738 68.4138 27.7895 68.4186 26.6758C68.4138 25.7677 68.6576 24.9719 69.1499 24.2884C69.6422 23.6049 70.3233 23.0719 71.1932 22.6896C72.0631 22.3072 73.0549 22.116 74.1686 22.116C75.3061 22.116 76.2931 22.3096 77.1296 22.6967C77.9708 23.0791 78.6232 23.6168 79.0869 24.3099C79.5505 25.0029 79.7871 25.8059 79.7967 26.7189H76.3983Z" fill="#FFB240"/>
<path d="M15.1886 28.759L27.2113 28.7596C29.116 28.7596 30.6601 30.3036 30.6601 32.2083V33.5956C30.6601 35.2719 29.9282 36.8647 28.6563 37.9567C26.2569 40.0167 22.8229 41.0235 18.3932 41.0235L18.1188 41.0217C18.582 40.089 18.4686 38.943 17.7793 38.1149L17.61 37.9297L14.192 34.5209C14.9283 33.2532 15.3277 31.8024 15.3277 30.2925C15.3277 29.7688 15.28 29.2563 15.1886 28.759ZM6.89746 23.395C10.7068 23.395 13.7949 26.4831 13.7949 30.2925C13.7949 31.969 13.1968 33.5058 12.2022 34.7012L16.5275 39.0149C16.9769 39.4633 16.9778 40.1911 16.5294 40.6406C16.1218 41.0492 15.4832 41.0871 15.0327 40.7537L14.9037 40.6425L10.4539 36.2036C9.4154 36.8297 8.1985 37.1899 6.89746 37.1899C3.0881 37.1899 0 34.1018 0 30.2925C0 26.4831 3.0881 23.395 6.89746 23.395ZM6.89746 25.6941C4.35789 25.6941 2.29915 27.7529 2.29915 30.2925C2.29915 32.832 4.35789 34.8908 6.89746 34.8908C9.43704 34.8908 11.4958 32.832 11.4958 30.2925C11.4958 27.7529 9.43704 25.6941 6.89746 25.6941ZM18.3932 10.3735C22.6259 10.3735 26.0571 13.8048 26.0571 18.0374C26.0571 22.27 22.6259 25.7012 18.3932 25.7012C14.1606 25.7012 10.7294 22.27 10.7294 18.0374C10.7294 13.8048 14.1606 10.3735 18.3932 10.3735Z" fill="#FFB240"/>
<path d="M18.392 9.21194C15.5328 9.21194 13.1036 10.2942 11.5169 11.9905V15.1456H25.2681V11.9905C23.6815 10.2942 21.2517 9.21194 18.392 9.21194ZM31.0172 7.59274L18.3587 0L5.70544 7.59274L7.81467 8.84914V10.7816C7.28578 10.9241 7.28419 11.2848 7.28419 11.7137C7.28419 11.9671 7.34871 12.2638 7.47142 12.4414L6.74789 14.4571H9.32889L8.61171 12.44C8.7323 12.2624 8.8312 12.0008 8.8312 11.7474C8.8312 11.3192 8.34356 10.9234 8.34356 10.7809V9.17201L10.988 10.7182V10.5812C12.5747 8.78511 15.3625 7.64506 18.3915 7.64506C21.4215 7.64506 24.2104 8.78511 25.797 10.5812V10.7182L31.0172 7.59274Z" fill="#FFB240"/>
</svg>
