<svg width="28" height="28" viewBox="0 0 28 28" fill="none" xmlns="http://www.w3.org/2000/svg">
<path d="M14.1264 8.77709C12.8505 8.77709 11.7666 9.26 11.0585 10.0169V11.4248H17.1947V10.0169C16.4867 9.26 15.4025 8.77709 14.1264 8.77709ZM19.76 8.05457L14.1115 4.6665L8.46533 8.05457L9.40652 8.6152V9.4775C9.17051 9.54109 9.16981 9.70206 9.16981 9.89344C9.16981 10.0065 9.1986 10.1389 9.25335 10.2181L8.9305 11.1176H10.0822L9.76218 10.2175C9.81599 10.1383 9.86012 10.0215 9.86012 9.90849C9.86012 9.71742 9.64252 9.54078 9.64252 9.47719V8.75927L10.8225 9.44923V9.3881C11.5306 8.58663 12.7745 8.07791 14.1261 8.07791C15.4782 8.07791 16.7227 8.58663 17.4307 9.3881V9.44923L19.76 8.05457Z" fill="black"/>
<circle cx="14" cy="14" r="13.475" stroke="black" stroke-width="1.05"/>
<path d="M14.1252 14.6086C14.7633 14.6086 15.3871 14.4482 15.9177 14.1476C16.4482 13.8471 16.8617 13.4199 17.1059 12.92C17.3501 12.4202 17.414 11.8702 17.2895 11.3396C17.165 10.809 16.8578 10.3216 16.4066 9.9391C15.9554 9.55656 15.3805 9.29604 14.7546 9.1905C14.1288 9.08496 13.4801 9.13912 12.8906 9.34616C12.301 9.55319 11.7972 9.90378 11.4427 10.3536C11.0881 10.8034 10.8989 11.3323 10.8989 11.8733C10.8989 12.5987 11.2388 13.2945 11.8439 13.8075C12.4489 14.3204 13.2696 14.6086 14.1252 14.6086Z" fill="black"/>
<path d="M18.9645 21.4472C19.1784 21.4472 19.3835 21.3752 19.5348 21.2469C19.6861 21.1187 19.771 20.9448 19.771 20.7634C19.771 19.4939 19.1762 18.2763 18.1174 17.3786C17.0585 16.4809 15.6224 15.9766 14.125 15.9766C12.6276 15.9766 11.1915 16.4809 10.1327 17.3786C9.07385 18.2763 8.479 19.4939 8.479 20.7634C8.479 20.9448 8.56398 21.1187 8.71524 21.2469C8.86651 21.3752 9.07166 21.4472 9.28558 21.4472H18.9645Z" fill="black"/>
</svg>
